<?xml version="1.0" encoding="UTF-8" standalone="no"?>
<!-- Created with Inkscape (http://www.inkscape.org/) -->

<svg
   version="1.1"
   id="svg1"
   width="460"
   height="460"
   viewBox="0 0 460 460"
   sodipodi:docname="portrait.png"
   xmlns:inkscape="http://www.inkscape.org/namespaces/inkscape"
   xmlns:sodipodi="http://sodipodi.sourceforge.net/DTD/sodipodi-0.dtd"
   xmlns="http://www.w3.org/2000/svg"
   xmlns:svg="http://www.w3.org/2000/svg">
  <defs
     id="defs1" />
  <sodipodi:namedview
     id="namedview1"
     pagecolor="#ffffff"
     bordercolor="#000000"
     borderopacity="0.25"
     inkscape:showpageshadow="2"
     inkscape:pageopacity="0.0"
     inkscape:pagecheckerboard="0"
     inkscape:deskcolor="#d1d1d1">
    <inkscape:page
       x="0"
       y="0"
       width="460"
       height="460"
       id="page2"
       margin="0"
       bleed="0" />
  </sodipodi:namedview>
  <g
     inkscape:groupmode="layer"
     inkscape:label="Image"
     id="g1">
    <path
       style="fill:#000000"
       d="m 201.91526,418.42667 c -6.85849,-1.75705 -13.00049,-5.25786 -25,-14.2495 -2.39058,-1.79134 -7.91717,-6.50718 -9.87241,-8.42412 -1.17018,-1.14726 -5.95259,-5.36501 -10.62759,-9.3728 -4.675,-4.00778 -12.04504,-10.48659 -16.37787,-14.39734 -4.33283,-3.91076 -8.43155,-7.568 -9.10828,-8.12721 -3.74781,-3.09699 -12.81844,-15.27431 -15.46497,-20.76173 -2.37688,-4.92829 -3.27838,-8.57536 -4.02958,-16.30181 -0.53224,-5.47426 -0.97931,-10.91461 -0.9935,-12.08966 -0.0212,-1.75538 -0.81789,-2.25523 -4.46659,-2.80239 -2.9941,-0.44899 -7.232325,-2.52207 -13.009745,-6.36354 -11.17055,-7.42745 -12.29147,-9.61831 -13.16345,-25.72836 -0.35753,-6.60531 -1.32382,-13.76182 -2.15623,-15.96925 -1.07051,-2.83887 -1.63966,-9.4058 -1.96069,-22.62249 -0.5023,-20.68025 -0.25401,-21.82592 6.10908,-28.18901 l 3.3432,-3.34321 0.6035,-20.42264 c 0.33193,-11.23246 1.29479,-24.47265 2.13969,-29.42265 0.8449,-4.95 2.65104,-17.50126 4.01363,-27.89168 1.44601,-11.02653 3.09246,-19.83031 3.95468,-21.14622 0.81248,-1.24 3.44663,-3.86832 5.853655,-5.8407 4.84629,-3.97117 9.17195,-11.106695 10.24666,-16.902685 1.20563,-6.50209 15.27411,-19.164082 22.61672,-20.355623 2.29355,-0.372191 5.87223,-2.678346 10.82974,-6.978841 4.07234,-3.532626 7.88037,-6.265979 8.4623,-6.074117 0.58193,0.191863 1.28305,1.845901 1.55805,3.67564 l 0.5,3.326799 3.5,-4.328564 c 3.69453,-4.569149 10.22509,-10.945574 12.57092,-12.274214 1.10914,-0.628202 1.27051,-0.166938 0.78712,2.25 -0.7492,3.746012 -0.21251,3.791162 3.44954,0.290199 5.3788,-5.142191 8.60546,-7.236885 12.15205,-7.888895 1.9472,-0.357978 4.61356,-1.485672 5.92523,-2.505987 3.45213,-2.685321 7.50144,-2.328013 11.33034,0.999781 4.5437,3.949039 11.4655,5.864842 23.7848,6.583111 5.775,0.336708 13.875,1.547341 18,2.690296 6.02117,1.668345 11.74867,2.205633 29.04742,2.724897 22.35141,0.670931 22.22735,0.647199 28.03354,5.362792 0.86953,0.706203 3.49066,4.087864 5.82474,7.514804 4.39999,6.460162 12.42201,14.2692 14.65836,14.2692 0.70537,0 2.55452,1.061689 4.10921,2.359302 1.5547,1.29762 4.31316,3.12155 6.12991,4.05319 3.91509,2.00766 5.27418,3.14369 13.46696,11.25672 5.68736,5.631985 6.46959,6.938195 8.98288,14.999995 1.51416,4.85693 3.22798,10.85579 3.8085,13.33079 1.85503,7.9089 2.28434,38.58206 0.93484,66.79288 l -1.30559,27.29287 3.29014,3.39456 c 3.24333,3.34627 3.28267,3.49859 2.76511,10.70713 -0.36452,5.07706 -1.29231,8.78605 -3.03489,12.13245 -1.87317,3.59718 -2.69263,7.14869 -3.23032,14 -0.39625,5.04907 -1.50544,10.98012 -2.46486,13.18012 -6.49686,14.89764 -7.90914,18.27682 -8.56764,20.5 -1.02866,3.47288 -4.97588,9.57985 -10.04032,15.53395 -3.51394,4.13122 -4.40018,6.01417 -4.94202,10.5 -1.37206,11.35919 -5.53728,23.19437 -11.07402,31.46605 -9.21828,13.77178 -11.56088,16.97777 -16.97462,23.23081 -8.55214,9.87799 -21.63942,22.52635 -28.7324,27.76877 -3.40171,2.51421 -7.08493,5.38464 -8.18493,6.37875 -7.4707,6.75151 -19.57885,9.94996 -42.27866,11.16818 -8.95326,0.48049 -17.72826,1.08425 -19.5,1.34168 -1.77174,0.25744 -4.57134,0.12222 -6.22134,-0.30048 z m 23.60373,-8.0999 c 1.98205,-0.55058 10.08205,-1.39261 18,-1.87119 19.66714,-1.18873 26.05241,-3.72082 39.54986,-15.68355 15.0816,-13.36675 28.74092,-29.56596 39.87724,-47.29224 7.53977,-12.00146 7.57606,-12.23855 8.5214,-55.67951 0.84351,-38.76161 0.36644,-55.96132 -1.55223,-55.96132 -0.55,0 -1.79448,4.86865 -2.7655,10.81923 -2.20072,13.48623 -3.08074,15.50858 -10.52708,24.19201 -13.51411,15.75924 -21.12389,19.28864 -34.69181,16.09 -4.06293,-0.95784 -7.92115,-2.38496 -8.57382,-3.17138 -1.48156,-1.78517 -1.1858,-1.78005 4.05821,0.0701 2.3383,0.825 7.00738,1.4943 10.37573,1.48733 15.10284,-0.0312 27.3126,-12.38552 29.78332,-30.13586 1.92364,-13.82002 -1.11671,-23.1901 -7.93995,-24.47014 -4.02298,-0.75472 -32.64067,0.29469 -38.39178,1.40782 -8.59846,1.66424 -17.40287,13.85964 -18.50179,25.62771 l -0.61863,6.62482 8.55582,8.47916 c 4.7057,4.66354 8.15821,8.47916 7.67223,8.47916 -1.23725,0 -13.66897,-10.83104 -18.18495,-15.8435 -3.45739,-3.83748 -3.75,-4.63215 -3.75,-10.18413 0,-5.61419 -0.18182,-6.091 -2.68562,-7.04294 -1.47709,-0.56159 -4.96459,-0.88795 -7.75,-0.72525 -4.52852,0.26452 -5.10128,0.55749 -5.41316,2.76886 -0.68381,4.84861 -18.64913,23.43398 -26.484,27.39806 -9.92399,5.02108 -27.86646,5.85383 -37.16722,1.72501 -7.78979,-3.45806 -12.98866,-11.61205 -14.99426,-23.51721 -0.42372,-2.51518 -1.75949,-4.94765 -3.72542,-6.78411 l -3.06486,-2.86301 2.14227,-2.28034 c 3.94513,-4.1994 3.00601,-4.65257 -9.60773,-4.63613 -6.4625,0.008 -12.2,0.34592 -12.75,0.75 -1.33458,0.9805 -5.30549,12.71828 -5.99967,17.73469 -1.18264,8.54617 -2.12887,50.78448 -1.47298,65.7515 0.63407,14.46921 0.91172,16.17835 3.41059,20.99481 4.12673,7.95409 9.38479,14.32973 16.04403,19.45411 3.30992,2.54703 6.91803,5.46686 8.01803,6.48852 2.43587,2.26238 27.01337,21.66974 30.5,24.084 11.95567,8.2785 24.82432,15.06737 32.61769,17.2075 5.98403,1.64327 12.69574,1.83801 17.48604,0.50737 z m -2.60373,-54.98781 c -1.65,-0.41985 -5.33594,-0.81661 -8.19098,-0.88169 -2.85504,-0.0651 -5.47995,-0.58586 -5.83312,-1.15731 -0.35318,-0.57144 1.08277,-2.63048 3.19098,-4.57562 3.77158,-3.47986 3.93433,-3.52602 10.13759,-2.87558 3.46746,0.36358 7.73949,1.07261 9.4934,1.57563 4.27571,1.22626 12.92868,1.15913 16.31022,-0.12653 2.53989,-0.96566 2.61926,-1.16012 1.09539,-2.68399 -1.44774,-1.44774 -2.52424,-1.50589 -9.06193,-0.48949 -6.10858,0.94968 -9.07253,0.87506 -16.78029,-0.42246 -5.14869,-0.86672 -9.81126,-1.59681 -10.36126,-1.62243 -0.55,-0.0256 -4.13962,1.42881 -7.97693,3.23205 -8.24646,3.87519 -13.354,4.7543 -17.54241,3.01941 -4.73016,-1.9593 -5.57675,-4.48681 -2.52502,-7.53854 l 2.53316,-2.53316 3.73774,2.53985 c 2.05575,1.39692 4.34534,2.53986 5.08798,2.53986 1.53894,0 13.87302,-5.14246 19.32163,-8.05578 4.56697,-2.44191 7.10677,-2.43542 16.81367,0.043 7.72229,1.97167 7.84059,1.97207 15.15675,0.0513 7.31955,-1.92169 7.38913,-1.92142 9.47344,0.0367 2.93872,2.76079 7.72325,3.92484 16.132,3.92484 8.36615,0 8.74331,1.02646 2.0751,5.64753 -3.58891,2.48712 -5.20645,2.8766 -13.8474,3.33427 -8.1962,0.43411 -10.16159,0.86809 -12.11177,2.67442 -4.63736,4.29523 -17.9116,6.48532 -26.32794,4.34372 z m -16.25,-44.19968 c -3.50169,-3.78062 -3.0038,-8.48664 1.38817,-13.12082 2.51424,-2.6529 3.93969,-3.50164 4.6642,-2.77713 0.7245,0.7245 0.68493,1.83009 -0.1295,3.61756 -1.68135,3.69018 -1.44691,7.92089 0.57713,10.41449 1.63331,2.01222 2.10478,2.07975 7.0707,1.01275 2.92639,-0.62877 6.96322,-0.83509 8.97073,-0.45848 6.10947,1.14615 1.32683,2.67182 -10.15553,3.23963 -9.75833,0.48256 -10.21971,0.41074 -12.3859,-1.928 z m 43.05576,-1.33192 c 3.29856,-2.90194 6.28928,-3.14486 8.96014,-0.72777 1.84271,1.66763 2.02427,1.62335 4.32874,-1.05576 2.61372,-3.03863 3.01045,-5.68572 1.32434,-8.83626 -1.49414,-2.79182 -0.34351,-3.54278 2.07489,-1.35416 2.13253,1.92991 2.78464,8.72775 1.09345,11.39851 -1.00261,1.58333 -8.19239,2.9744 -15.58732,3.01583 l -5,0.028 z m 16.28468,-60.32207 c -0.66503,-1.07604 4.57894,-6.77318 10.21669,-11.09959 6.73739,-5.17027 10.91213,-5.17608 21.49249,-0.0299 4.78521,2.3275 8.70038,4.62586 8.70038,5.10747 0,1.33233 -3.34277,1.04821 -7.34576,-0.62434 -4.86636,-2.0333 -5.37787,-1.93512 -7.0814,1.35915 -3.0272,5.85394 -11.31349,6.6072 -13.68737,1.24423 l -1.28415,-2.90108 -3.55066,2.64294 c -1.95286,1.45362 -3.91052,3.2081 -4.35035,3.89885 -0.924,1.45114 -2.3478,1.6353 -3.10987,0.40224 z m -155.24825,37.69336 c 0.3618,-9.98817 0.65781,-24.404 0.65781,-32.03518 0,-13.75492 -0.018,-13.86523 -2.08565,-12.75867 -1.1471,0.61391 -2.19193,0.96724 -2.32183,0.78518 -0.1299,-0.18206 -1.48659,-4.16533 -3.01486,-8.85171 -2.82933,-8.67601 -5.547495,-12.68546 -11.448695,-16.88748 -2.36529,-1.68424 -3.58713,-2.03366 -4.37081,-1.24998 -2.6382,2.6382 -1.70183,22.99456 1.70924,37.15815 0.72852,3.025 1.59242,10.01746 1.91977,15.53879 0.84573,14.26446 2.50151,19.10873 8.14332,23.8247 2.527095,2.11239 5.556215,5.81976 6.731385,8.23861 1.17516,2.41884 2.42598,4.3979 2.77959,4.3979 0.35361,0 0.93894,-8.17214 1.30073,-18.16031 z m 233.44971,2.41031 c 1.829,-4.86179 3.18845,-11.91682 4.22795,-21.9414 0.74554,-7.18979 1.78847,-11.43878 3.93202,-16.01944 4.83467,-10.33146 5.32247,-20.28916 0.99389,-20.28916 -2.95416,0 -6.83763,2.86617 -9.39256,6.93212 -2.12086,3.37515 -2.27416,4.93182 -2.83803,28.81788 -0.48489,20.54031 -0.35002,25.25 0.72306,25.25 0.72552,0 1.78467,-1.2375 2.35367,-2.75 z M 198.41882,273.56529 c 12.38764,-3.8857 21.43901,-11.58996 22.58812,-19.22633 0.37243,-2.475 1.51666,-5.69447 2.54274,-7.15437 2.12269,-3.02019 2.38612,-7.57855 0.57537,-9.95636 -1.8406,-2.41701 -10.51436,-6.49295 -16.53658,-7.7708 -2.92973,-0.62166 -6.18507,-1.58963 -7.23408,-2.15105 -1.04901,-0.56141 -7.65196,-1.6971 -14.67321,-2.52375 -17.73391,-2.0879 -21.10921,-1.25685 -26.10596,6.42767 -3.64655,5.60804 -3.65961,5.66712 -3.56564,16.12866 0.0872,9.70774 0.33273,10.97005 3.25412,16.72965 3.38745,6.67846 5.64836,8.6636 12.37514,10.86569 5.37979,1.76113 19.02486,1.06359 26.77998,-1.36901 z m -12.22195,-26.4813 c -1.49511,-1.23477 -3.18999,-3.53123 -3.76639,-5.10325 -0.97139,-2.64926 -1.32095,-2.80763 -4.78161,-2.16637 -2.05349,0.38051 -5.08361,0.93371 -6.73361,1.22934 l -3,0.53749 3.47367,-2.64281 c 4.19612,-3.19244 10.03531,-4.9857 15.79497,-4.85074 7.64109,0.17905 24.44381,11.43886 21.4851,14.39757 -0.84409,0.84409 -1.93314,0.45985 -4.27013,-1.5066 -3.86577,-3.25283 -4.47784,-3.2628 -8.5725,-0.13966 -4.04068,3.08198 -6.13002,3.13514 -9.6295,0.24503 z m 58.92919,-11.33368 c 5.6118,0.57495 6.77693,0.38293 9.58861,-1.58026 1.76032,-1.2291 3.42559,-2.53308 3.70059,-2.89773 0.275,-0.36465 2.975,-2.04204 6,-3.72752 8.83219,-4.92117 20.25956,-7.31957 37.74939,-7.92293 16.86737,-0.58188 20.83438,0.21051 21.87836,4.37006 0.78383,3.12302 3.9325,4.93539 4.77229,2.74693 1.13141,-2.94842 0.57036,-17.90006 -0.90679,-24.16524 -0.81246,-3.44593 -1.94384,-10.42093 -2.51418,-15.5 -0.7918,-7.05119 -1.85769,-10.94601 -4.50803,-16.47255 -1.90907,-3.98084 -3.4889,-7.80584 -3.51072,-8.5 -0.0651,-2.07103 -5.3875,-11.3483 -8.56456,-14.92859 -6.47931,-7.30166 -14.94957,-10.87972 -18.1586,-7.67069 -0.88379,0.88379 -1.42675,0.46871 -2.26256,-1.72965 -1.58077,-4.15773 -3.36827,-4.93941 -3.9746,-1.73811 -0.75866,4.00558 -2.52434,3.80182 -3.56809,-0.41177 -0.52479,-2.11854 -1.62695,-3.89458 -2.52286,-4.06539 -1.27921,-0.24387 -1.78775,1.22365 -2.59532,7.48939 l -1.00437,7.7927 -0.15468,-7.67858 c -0.1719,-8.53324 -1.03331,-10.05334 -7.11502,-12.55563 -1.94681,-0.801 -4.88966,-2.06348 -6.53966,-2.80551 -10.81979,-4.86582 -32.28414,-7.01626 -55.5,-5.56036 -20.93202,1.31267 -26.13928,2.90656 -38.43583,11.76477 -11.14452,8.02831 -23.46877,24.16888 -27.7441,36.33531 -0.86973,2.475 -2.60727,7.425 -3.86121,11 -1.25394,3.575 -3.78266,8.2685 -5.61937,10.43 l -3.33949,3.93 v 12.18351 c 0,6.70093 -0.45951,14.60651 -1.02114,17.56796 -1.38817,7.3198 -0.45699,7.90492 12.46227,7.8309 13.83146,-0.0792 16.48789,-0.7567 22.07469,-5.62963 5.47526,-4.77563 15.08834,-8.79523 19.218,-8.03579 30.14459,5.54357 42.5537,9.9807 52.12518,18.63843 2.82008,2.55086 3.68827,2.8621 5.41139,1.93991 1.28243,-0.68633 4.4489,-0.85288 8.44041,-0.44394 z m -56.2108,-20.36566 c -6.05,-1.50306 -13.43485,-3.78976 -16.41078,-5.08157 -6.94516,-3.01479 -13.35772,-3.02325 -18.33922,-0.0242 -8.61412,5.18602 -1.23009,-2.47897 9.31345,-9.66781 6.68353,-4.55701 10.56952,-4.99852 16.69127,-1.89639 8.06599,4.08734 25.73699,8.61024 33.66959,8.61774 l 6.92432,0.007 -2.42432,2.60623 c -1.33337,1.43343 -4.30539,3.90843 -6.60449,5.5 -5.19316,3.59502 -8.13712,3.58721 -22.81982,-0.0605 z m 71.77913,1.78073 c -1.46366,-1.77687 3.78149,-7.8947 9.20606,-10.73775 3.64119,-1.90838 5.65082,-2.08867 23.28139,-2.08867 17.15054,0 19.36789,0.18686 19.94103,1.68044 0.45685,1.19052 -0.64557,2.7932 -3.78138,5.49729 l -4.42623,3.81686 -12,0.0228 c -11.00432,0.0209 -18.07292,0.65105 -27.56413,2.4572 -2.44721,0.4657 -3.90653,0.26257 -4.65674,-0.64818 z"
       id="path1" />
  </g>
</svg>
