<svg width="32" height="32" viewBox="0 0 32 32" fill="none" xmlns="http://www.w3.org/2000/svg">
<g clip-path="url(#clip0_185_18)">
<path d="M26 0H6C2.68629 0 0 2.68629 0 6V26C0 29.3137 2.68629 32 6 32H26C29.3137 32 32 29.3137 32 26V6C32 2.68629 29.3137 0 26 0Z" fill="#284B3D"/>
<path d="M9 24C10.3333 18.6667 11.1875 16 15.1875 16C11.1875 16 11 13.3333 11 8C11 6.66667 12 6 14 6C16 6 17 7.33333 17 10C17 11.3333 16 12 14 12C17.3333 12 19.6667 10.6667 21 8C21.6667 6.66667 22.3333 6.66667 23 8C21.6667 12 19 14.6667 15 16C19 17.3333 21.6667 20 23 24C22.3333 25.3333 21.6667 26 21 26C19.6667 24.6667 17.3333 22.6667 14 20C12 22.6667 10.3333 24 9 24Z" fill="white"/>
</g>
<defs>
<clipPath id="clip0_185_18">
<rect width="32" height="32" fill="white"/>
</clipPath>
</defs>
</svg>
